<svg width="32" height="32" viewBox="0 0 32 32" fill="none" xmlns="http://www.w3.org/2000/svg">
    <path d="M22.6676 1.61102L24.426 4.90813L27.7231 6.66658L24.426 8.42504L22.6676 11.7221L20.9091 8.42504L17.612 6.66658L20.9091 4.90813L22.6676 1.61102ZM14.2231 12.4444L20.8897 15.9999L14.2231 19.5555L10.6675 26.2222L7.11197 19.5555L0.445312 15.9999L7.11197 12.4444L10.6675 5.77769L14.2231 12.4444ZM15.2231 15.9999L12.2521 14.4154L10.6675 11.4444L9.08299 14.4154L6.11197 15.9999L9.08299 17.5844L10.6675 20.5555L12.2521 17.5844L15.2231 15.9999ZM26.2231 21.7778L24.0009 17.6111L21.7787 21.7778L17.612 23.9999L21.7787 26.2222L24.0009 30.3888L26.2231 26.2222L30.3897 23.9999L26.2231 21.7778Z" fill="#fff"></path>
</svg>